<?xml version="1.0" encoding="UTF-8"?>
<svg width="399px" height="378px" viewBox="0 0 399 378" version="1.1" xmlns="http://www.w3.org/2000/svg" xmlns:xlink="http://www.w3.org/1999/xlink">
    <title>Group 45 Copy</title>
    <g id="skjema" stroke="none" stroke-width="1" fill="none" fill-rule="evenodd">
        <g id="Group-45-Copy" stroke-width="6">
            <path d="M227.996077,189.304057 L304.290765,266.364668 C311.32418,263.232787 319.112646,261.493558 327.306886,261.493558 C342.961912,261.493558 357.134742,267.845631 367.393904,278.115124 C377.654159,288.38571 384,302.574464 384,318.246779 C384,323.867929 383.184175,329.298354 381.663854,334.425556 L350.015296,302.459414 C345.098864,297.493699 338.637954,294.981852 332.159191,294.93493 C325.680429,294.888008 319.183815,297.30601 314.195974,302.199994 C309.209557,307.092579 306.672605,313.541304 306.60183,320.016982 C306.531055,326.492661 308.926457,332.995293 313.804743,337.995687 L346.612853,371.625218 C340.587075,373.809575 334.085838,375 327.306886,375 C311.65186,375 297.479031,368.647927 287.219868,358.378434 C276.959613,348.107848 270.613772,333.919094 270.613772,318.246779 C270.613772,309.961445 272.386251,302.090472 275.57451,294.994099 L200.014164,217.542406 L227.996077,189.304057 Z M67.5763473,3 C82.0945596,3 95.2381975,8.89082418 104.752372,18.4145787 C114.267638,27.9394266 120.152695,41.0979527 120.152695,55.6323092 C120.152695,62.9226017 118.673095,69.8669869 115.99603,76.1800831 L199.51763,160.539312 L171.826394,188.649586 L88.9742729,103.723572 C82.4377014,106.642993 75.1961916,108.264618 67.5763473,108.264618 C53.058135,108.264618 39.9144972,102.373794 30.4003228,92.8500397 C20.8850562,83.3251919 15,70.1666657 15,55.6323092 C15,41.0979527 20.8850562,27.9394266 30.4003228,18.4145787 C39.9144972,8.89082418 53.058135,3 67.5763473,3 Z M67.3892216,20.9762141 C57.7759801,20.9762141 49.0726868,24.8764432 42.7727934,31.1826801 C36.4739923,37.4878238 32.5778443,46.1982272 32.5778443,55.8196234 C32.5778443,65.4410196 36.4739923,74.151423 42.7727934,80.4565666 C49.0726868,86.7628036 57.7759801,90.6630327 67.3892216,90.6630327 C77.002463,90.6630327 85.7057563,86.7628036 92.0056497,80.4565666 C98.3044508,74.151423 102.200599,65.4410196 102.200599,55.8196234 C102.200599,46.1982272 98.3044508,37.4878238 92.0056497,31.1826801 C85.7057563,24.8764432 77.002463,20.9762141 67.3892216,20.9762141 Z" id="Combined-Shape" stroke="#979797" fill="#F1F1F1"></path>
            <polygon id="Path-40" stroke="#966448" fill="#E6B25F" points="395 16.4136682 382.140863 6 339.559307 24.2348642 328.225941 55.9757082 149 223.599991 164.643518 239 339.559307 67.9225804 370.450244 61.5368013"></polygon>
            <path d="M171.306815,269.171511 L168.413768,271.866363 C165.732681,274.363775 161.557821,274.297994 158.956746,271.717352 C156.364847,269.145813 152.196416,269.106305 149.55624,271.628254 L46.766204,369.815388 C42.0166377,374.35227 34.5021786,374.227701 29.9055989,369.535885 L8.52268942,347.709945 C3.88469136,342.975853 3.96259116,335.378272 8.69668349,330.740274 C8.73884875,330.698965 8.78131825,330.657967 8.82408851,330.617284 L112.732744,231.780346 C115.129625,229.500455 115.248537,225.717339 112.999569,223.291418 C110.712896,220.824826 110.718799,217.011146 113.013095,214.551644 L115.899291,211.457621 C119.550093,207.543935 125.682321,207.330826 129.596007,210.981627 C129.716583,211.094105 129.83427,211.209641 129.94895,211.328124 L171.687862,254.450809 C175.649644,258.543936 175.543168,265.073731 171.45004,269.035513 C171.402734,269.081302 171.35499,269.126636 171.306815,269.171511 Z" id="Path-41" stroke="#966448" fill="#E6B25F"></path>
        </g>
    </g>
</svg>