<?xml version="1.0" encoding="UTF-8"?>
<svg width="412px" height="276px" viewBox="0 0 412 276" version="1.1" xmlns="http://www.w3.org/2000/svg" xmlns:xlink="http://www.w3.org/1999/xlink">
    <title>Group 41 Copy 3</title>
    <g id="skjema" stroke="none" stroke-width="1" fill="none" fill-rule="evenodd">
        <g id="Group-41-Copy-3" transform="translate(3.000000, 3.000000)">
            <path d="M175.078881,3.8166555 L292.538687,25.8298791 L313.935054,96.7183199 L320,177.819772 L320,204.864828 L263.915806,216.385915 C265.448833,197.036009 264.68079,182.375692 261.727555,172.386457 C260.003017,166.553251 257.51541,162.228074 254.398071,159.319449 C251.048482,156.194126 246.955284,154.604908 242.09685,154.604908 C233.19049,154.604908 225.82544,157.284121 219.958571,162.537112 C214.296989,167.606296 210.010267,175.152074 207.241111,185.272049 L192.299453,219.336601 L188.948038,57.7587202 L175.078881,3.8166555 Z" id="Path-20" stroke="#979797" stroke-width="6" fill="#E8E7E6"></path>
            <path d="M292,25 L310.928926,33.4545003 C319.068514,37.0900028 326.222567,42.6161909 331.796184,49.5735309 L367.016289,93.5374871 C370.543541,97.9404254 374.715866,101.785088 379.391963,104.941271 L384.567517,108.434569 C392.480214,113.775331 398.31962,121.670621 401.109379,130.80034 L403.555486,138.805426 C405.176171,144.109253 406,149.624408 406,155.170325 L406,186.548534 L406,188.131715 C406,189.082815 405.406721,189.932942 404.514004,190.261041 L403.337383,190.693482 C402.387905,191.042442 401.335313,190.555626 400.986353,189.606148 C400.897526,189.364461 400.860657,189.106761 400.878123,188.84986 C403.066094,156.719284 399.688362,140.653996 390.744928,140.653996 C381.543369,140.653996 375.407575,158.930466 372.337545,195.483408 L372.337545,195.483408 L372.337545,196.56426 C372.337545,197.18625 371.884096,197.715375 371.26944,197.810617 L318.418493,206 L318.418493,206 L318.418493,146.429141 L314.307064,98.7724539 L292,25 Z" id="Path-21" stroke="#979797" stroke-width="6" fill="#E8E7E6" stroke-linejoin="bevel"></path>
            <polygon id="Path-22" stroke="#979797" stroke-width="6" fill="#E8E7E6" points="170.382165 0 104.126921 0 26.2011908 13.7012379 -3.31508064e-15 91.8549279 0 217.773667 189 233 185.366735 58.1687883"></polygon>
            <polygon id="Path-22-Copy" stroke="#979797" fill="#827F7F" points="162.450813 13 103.557263 13 34.2899474 25.1135408 11 94.2107946 11 205.538092 179 219 175.770432 64.4281991"></polygon>
            <path d="M314.908545,46.9419747 L322.069872,50.5115021 C322.562707,50.7571533 322.999513,51.1019174 323.352934,51.5242027 L352.125256,85.9028565 C356.334376,90.9321299 359.29458,96.8854509 360.764242,103.276881 L361.523744,106.579893 C362.0188,108.732848 360.674808,110.879484 358.521853,111.37454 C357.8959,111.518473 357.244491,111.509555 356.622713,111.34854 L339.815438,106.996133 C335.534321,105.887497 331.71246,103.455633 328.894695,100.047227 L320.221837,89.556421 C319.86256,89.1218344 319.599224,88.6161982 319.449104,88.0726821 L309.352569,51.5176094 C308.773191,49.4199374 310.004011,47.2497593 312.101683,46.6703809 C313.038772,46.4115563 314.038464,46.5082872 314.908545,46.9419747 Z" id="Path-23" stroke="#979797" stroke-width="5" fill="#D8D8D8"></path>
            <path d="M234.643822,176.143732 C240.028371,177.845662 256,185.018217 256,219.727339 C255.814733,252.397192 240.867843,266.864037 234.643822,269.362027 C227.434252,271.806241 208,269.361907 208,222.75282 C210.467926,185.018217 229.943464,174.611001 234.643822,176.143732 Z M235.538803,190.437647 C232.091874,189.385518 217.809813,196.529454 216,222.43202 C216,254.426394 230.251785,256.104284 235.538803,254.426476 C240.103085,252.711754 251.064137,242.781123 251.2,220.355207 C251.2,196.529454 239.487472,191.60592 235.538803,190.437647 Z" id="Combined-Shape" stroke="#979797" stroke-width="5" fill="#D8D8D8"></path>
            <path d="M388.436354,156.123854 C390.343382,157.590411 396,163.771017 396,193.679941 C395.934385,221.831623 390.640694,234.297734 388.436354,236.450258 C385.882964,238.556442 379,236.450154 379,196.287004 C379.874057,163.771017 386.771644,154.803097 388.436354,156.123854 Z M388.180984,168.79088 C386.970286,167.884478 381.95386,174.038933 381.318182,196.353826 C381.318182,223.916772 386.323974,225.362264 388.180984,223.916843 C389.784141,222.439621 393.634098,213.884447 393.681818,194.564665 C393.681818,174.038933 389.567914,169.797341 388.180984,168.79088 Z" id="Combined-Shape" stroke="#979797" stroke-width="5" fill="#D8D8D8"></path>
            <path d="M177,185 L177,216.832135 L28.6562048,204.863306 L163.35993,185 L177,185 Z" id="Path-25" stroke="#7E7B7B" stroke-width="4" fill="#827F7F"></path>
            <polygon id="Path-26" stroke="#979797" fill="#C2C2C2" points="163 183.683595 163 25.3739492 115.896859 17 57.3409687 21.4881047 34.2573161 25.3739492 11 94.5483714 11 206"></polygon>
            <g id="Group-11" transform="translate(11.000000, 154.000000)" fill="#D8D8D8" stroke="#979797" stroke-linejoin="bevel" stroke-width="4">
                <g id="Group-12">
                    <polygon id="Path-27" points="83.8823087 52.850089 83.8823087 4.08338546 -3.14054582e-15 0.466559624 0 50.608926 83.8823087 57"></polygon>
                    <polygon id="Path-28" points="83.8823087 57 152 46.2128995 152 0.466559624 83.8823087 4.08338546"></polygon>
                    <path d="M152,0.0562003988 C130.306278,-0.0182534626 105.846953,-0.0187303915 78.6220243,0.054769612 C51.3970959,0.128269615 25.1897545,0.265532953 0,0.466559624 L83.8823087,4.08338546 L152,0.0562003988 Z" id="Path-29"></path>
                </g>
            </g>
            <g id="Group-12-Copy" transform="translate(11.000000, 136.000000)" fill="#D8D8D8" stroke="#979797">
                <polygon id="Path-27" stroke-width="3" points="38.5853659 1.39919636 -1.4446325e-15 1.13566806e-13 0 19.3979527 38.5853659 21"></polygon>
                <polygon id="Path-28" stroke-width="3" points="38.5853659 20.9195014 113 18.8799279 113 2.02133095 38.5853659 1.39919636"></polygon>
                <polygon id="Path-29" points="113 2.02133095 57.5584526 0.344768638 -2.46926181e-14 1.20577103e-14 38.5853659 1.39919636"></polygon>
            </g>
            <g id="Group-12-Copy-2" transform="translate(11.000000, 117.000000)" fill="#D8D8D8" stroke="#979797">
                <polygon id="Path-27" stroke-width="3" points="38.5853659 1.33620717 -1.4446325e-15 1.1357221e-13 0 18.5246934 38.5853659 20.0546196"></polygon>
                <polygon id="Path-28" stroke-width="3" points="38.5853659 19.9777449 113 21 113 1.93033444 38.5853659 1.33620717"></polygon>
                <polygon id="Path-29" points="113 1.93033444 57.5584526 0.329247803 -2.46926181e-14 1.15148949e-14 38.5853659 1.33620717"></polygon>
            </g>
            <g id="Group-12-Copy-4" transform="translate(11.000000, 99.000000)" fill="#D8D8D8" stroke="#979797">
                <polygon id="Path-27" stroke-width="3" points="38.5853659 1.33620717 -1.4446325e-15 1.1357221e-13 0 18.5246934 38.5853659 20.0546196"></polygon>
                <polygon id="Path-28" stroke-width="3" points="38.5853659 19.9777449 113 21 113 1.93033444 38.5853659 1.33620717"></polygon>
                <polygon id="Path-29" points="113 1.93033444 57.5584526 0.329247803 -2.46926181e-14 1.15148949e-14 38.5853659 1.33620717"></polygon>
            </g>
        </g>
    </g>
</svg>