<?xml version="1.0" encoding="UTF-8"?>
<svg width="577px" height="211px" viewBox="0 0 577 211" version="1.1" xmlns="http://www.w3.org/2000/svg" xmlns:xlink="http://www.w3.org/1999/xlink">
    <title>Group 7</title>
    <g id="skjema" stroke="none" stroke-width="1" fill="none" fill-rule="evenodd">
        <g id="Group-7" transform="translate(3.000000, 3.000000)">
            <path d="M11.6808703,64.3453708 L187.18622,69.5956692 L187.18622,51.8635294 L199.189484,13 L353.771432,13 L442.786794,69.5956692 L467.104141,69.5956692 L548.954081,82.4256436 L560.248112,101.391816 L560.248112,135.118261 L571,135.118261 L571,179 L533.42726,179 C534.033828,133.953665 516.809747,111.430497 481.755017,111.430497 C446.700288,111.430497 429.092864,131.735614 428.932745,172.345848 L173.046782,172.345848 C172.792475,128.662234 153.909751,106.820426 116.39861,106.820426 C78.8874686,106.820426 62.4102952,128.662234 66.9670898,172.345848 L0,172.345848 L0,135.118261 L11.6808703,135.118261 L11.6808703,64.3453708 Z" id="Path-3" stroke="#966448" stroke-width="5" fill="#E6B25F"></path>
            <polygon id="Path-4" stroke="#966448" stroke-width="5" fill="#D8D8D8" points="221.055688 25 285 25 285 74 209 74"></polygon>
            <polygon id="Path-5" stroke="#966448" stroke-width="5" fill="#D8D8D8" points="308 25 348.58751 25 422 73.5652297 422 84 365 84 348.58751 73.5652297 308 73.5652297"></polygon>
            <path d="M120.5,121.5 C132.09798,121.5 142.59798,126.20101 150.198485,133.801515 C157.79899,141.40202 162.5,151.90202 162.5,163.5 C162.5,175.09798 157.79899,185.59798 150.198485,193.198485 C142.59798,200.79899 132.09798,205.5 120.5,205.5 C108.90202,205.5 98.4020203,200.79899 90.8015152,193.198485 C83.2010101,185.59798 78.5,175.09798 78.5,163.5 C78.5,151.90202 83.2010101,141.40202 90.8015152,133.801515 C98.4020203,126.20101 108.90202,121.5 120.5,121.5 Z M120.5,132.075 C111.822226,132.075 103.965976,135.592363 98.2791694,141.279169 C92.5923629,146.965976 89.075,154.822226 89.075,163.5 C89.075,172.177774 92.5923629,180.034024 98.2791694,185.720831 C103.965976,191.407637 111.822226,194.925 120.5,194.925 C129.177774,194.925 137.034024,191.407637 142.720831,185.720831 C148.407637,180.034024 151.925,172.177774 151.925,163.5 C151.925,154.822226 148.407637,146.965976 142.720831,141.279169 C137.034024,135.592363 129.177774,132.075 120.5,132.075 Z" id="Combined-Shape" stroke="#966448" stroke-width="5" fill="#D8D8D8"></path>
            <path d="M483.5,121.5 C495.09798,121.5 505.59798,126.20101 513.198485,133.801515 C520.79899,141.40202 525.5,151.90202 525.5,163.5 C525.5,175.09798 520.79899,185.59798 513.198485,193.198485 C505.59798,200.79899 495.09798,205.5 483.5,205.5 C471.90202,205.5 461.40202,200.79899 453.801515,193.198485 C446.20101,185.59798 441.5,175.09798 441.5,163.5 C441.5,151.90202 446.20101,141.40202 453.801515,133.801515 C461.40202,126.20101 471.90202,121.5 483.5,121.5 Z M483.5,132.075 C474.822226,132.075 466.965976,135.592363 461.279169,141.279169 C455.592363,146.965976 452.075,154.822226 452.075,163.5 C452.075,172.177774 455.592363,180.034024 461.279169,185.720831 C466.965976,191.407637 474.822226,194.925 483.5,194.925 C492.177774,194.925 500.034024,191.407637 505.720831,185.720831 C511.407637,180.034024 514.925,172.177774 514.925,163.5 C514.925,154.822226 511.407637,146.965976 505.720831,141.279169 C500.034024,135.592363 492.177774,132.075 483.5,132.075 Z" id="Combined-Shape-Copy" stroke="#966448" stroke-width="5" fill="#D8D8D8"></path>
            <polygon id="Path-6" stroke="#966448" stroke-width="5" fill="#FFFFFF" points="189 71 189 3.47331511e-15 13 0 13 66.2668301"></polygon>
            <g id="Group-5" transform="translate(132.000000, 5.000000)">
                <g id="Group-4">
                    <circle id="Oval" stroke="#979797" fill="#D8D8D8" cx="15" cy="15" r="14.5"></circle>
                    <circle id="Oval-Copy" fill="#7D7979" cx="15" cy="4.61538462" r="1.15384615"></circle>
                </g>
                <circle id="Oval" fill="#7D7979" cx="8.07692308" cy="6.92307692" r="1.15384615"></circle>
                <circle id="Oval-Copy-7" fill="#7D7979" cx="4.61538462" cy="15" r="1.15384615"></circle>
                <circle id="Oval-Copy-3" fill="#7D7979" cx="15" cy="8.07692308" r="1.15384615"></circle>
                <circle id="Oval-Copy-29" fill="#7D7979" cx="11.5384615" cy="5.76923077" r="1.15384615"></circle>
                <circle id="Oval-Copy-30" fill="#7D7979" cx="10.3846154" cy="24.2307692" r="1.15384615"></circle>
                <circle id="Oval-Copy-16" fill="#7D7979" cx="15" cy="11.5384615" r="1.15384615"></circle>
                <circle id="Oval-Copy-17" fill="#7D7979" cx="15" cy="18.4615385" r="1.15384615"></circle>
                <circle id="Oval-Copy-18" fill="#7D7979" cx="24.2307692" cy="20.7692308" r="1.15384615"></circle>
                <circle id="Oval-Copy-19" fill="#7D7979" cx="4.61538462" cy="18.4615385" r="1.15384615"></circle>
                <circle id="Oval-Copy-20" fill="#7D7979" cx="4.61538462" cy="10.3846154" r="1.15384615"></circle>
                <circle id="Oval-Copy-21" fill="#7D7979" cx="24.2307692" cy="10.3846154" r="1.15384615"></circle>
                <circle id="Oval-Copy-8" fill="#7D7979" cx="15" cy="25.3846154" r="1.15384615"></circle>
                <circle id="Oval-Copy-2" fill="#7D7979" cx="21.9230769" cy="6.92307692" r="1.15384615"></circle>
                <circle id="Oval-Copy-10" fill="#7D7979" cx="15" cy="15" r="1.15384615"></circle>
                <circle id="Oval-Copy-15" fill="#7D7979" cx="15" cy="21.9230769" r="1.15384615"></circle>
                <circle id="Oval-Copy-13" fill="#7D7979" cx="11.5384615" cy="16.1538462" r="1.15384615"></circle>
                <circle id="Oval-Copy-24" fill="#7D7979" cx="10.3846154" cy="10.3846154" r="1.15384615"></circle>
                <circle id="Oval-Copy-28" fill="#7D7979" cx="18.4615385" cy="5.76923077" r="1.15384615"></circle>
                <circle id="Oval-Copy-22" fill="#7D7979" cx="10.3846154" cy="19.6153846" r="1.15384615"></circle>
                <circle id="Oval-Copy-14" fill="#7D7979" cx="18.4615385" cy="16.1538462" r="1.15384615"></circle>
                <circle id="Oval-Copy-26" fill="#7D7979" cx="21.9230769" cy="15" r="1.15384615"></circle>
                <circle id="Oval-Copy-27" fill="#7D7979" cx="8.07692308" cy="15" r="1.15384615"></circle>
                <circle id="Oval-Copy-25" fill="#7D7979" cx="19.6153846" cy="10.3846154" r="1.15384615"></circle>
                <circle id="Oval-Copy-23" fill="#7D7979" cx="19.6153846" cy="19.6153846" r="1.15384615"></circle>
                <circle id="Oval-Copy-12" fill="#7D7979" cx="6.92307692" cy="21.9230769" r="1.15384615"></circle>
                <circle id="Oval-Copy-11" fill="#7D7979" cx="20.7692308" cy="24.2307692" r="1.15384615"></circle>
                <circle id="Oval-Copy-9" fill="#7D7979" cx="25.3846154" cy="15" r="1.15384615"></circle>
            </g>
        </g>
    </g>
</svg>