<?xml version="1.0" encoding="utf-8"?>
<!-- Generator: Adobe Illustrator 26.5.0, SVG Export Plug-In . SVG Version: 6.00 Build 0)  -->
<svg version="1.1" id="Layer_1" xmlns="http://www.w3.org/2000/svg" xmlns:xlink="http://www.w3.org/1999/xlink" x="0px" y="0px"
	 viewBox="0 0 516.8 514.2" style="enable-background:new 0 0 516.8 514.2;" xml:space="preserve">
<style type="text/css">
	.st0{fill:none;stroke:#FFFFFF;stroke-width:0.57;}
	.st1{fill:#FFFFFF;}
</style>
<g id="Page-1">
	<g id="desktop-tjenester" transform="translate(-929.000000, -26.000000)">
		<g id="ic-fb-white" transform="translate(929.956800, 27.000000)">
			<circle id="Oval" class="st0" cx="257.4" cy="253.2" r="251.5"/>
			<path id="Path" class="st1" d="M315.3,210.3l-4.5,42.9h-34.1v124h-52.6v-124h-24.7v-42.9h24.7v-25.8c0-34.8,15.5-54.3,56.6-54.3
				h34.4v42.7h-22.5c-16.2,0-17.1,6.1-17.1,17.3v22.5L315.3,210.3z"/>
		</g>
	</g>
</g>
<g>
	<g>
		<path class="st1" d="M439.6,76.1c-48.3-48.4-112.6-75-181-75s-132.7,26.6-181,75c-48.4,48.3-75,112.6-75,181s26.6,132.7,75,181
			c48.4,48.4,112.6,75,181,75s132.7-26.6,181-75s75-112.6,75-181S488,124.4,439.6,76.1z M258.6,496.9
			c-132.2,0-239.8-107.6-239.8-239.8S126.4,17.3,258.6,17.3s239.8,107.6,239.8,239.8S390.8,496.9,258.6,496.9z"/>
	</g>
</g>
</svg>
