<?xml version="1.0" encoding="utf-8"?>
<!-- Generator: Adobe Illustrator 26.5.0, SVG Export Plug-In . SVG Version: 6.00 Build 0)  -->
<svg version="1.1" id="Layer_1" xmlns="http://www.w3.org/2000/svg" xmlns:xlink="http://www.w3.org/1999/xlink" x="0px" y="0px"
	 viewBox="0 0 512 512" style="enable-background:new 0 0 512 512;" xml:space="preserve">
<style type="text/css">
	.st0{fill:#FFFFFF;}
</style>
<g>
	<g>
		<path class="st0" d="M437,75C388.7,26.6,324.4,0,256,0S123.3,26.6,75,75C26.6,123.3,0,187.6,0,256s26.6,132.7,75,181
			c48.4,48.4,112.6,75,181,75s132.7-26.6,181-75s75-112.6,75-181S485.4,123.3,437,75z M256,495.8C123.8,495.8,16.2,388.2,16.2,256
			S123.8,16.2,256,16.2S495.8,123.8,495.8,256S388.2,495.8,256,495.8z"/>
	</g>
</g>
<g>
	<g>
		<path class="st0" d="M347.8,97H164.2c-37,0-67.1,30.1-67.1,67.1v183.7c0,37,30.1,67.1,67.1,67.1h183.7c37,0,67.1-30.1,67.1-67.1
			V164.2C415,127.1,384.9,97,347.8,97z M398.8,347.8c0,28.1-22.9,51-51,51H164.2c-28.1,0-51-22.9-51-51V164.2c0-28.1,22.9-51,51-51
			h183.7c28.1,0,51,22.9,51,51L398.8,347.8L398.8,347.8z"/>
	</g>
</g>
<path class="st0" d="M256,171.4c-46.7,0-84.6,37.9-84.6,84.6s37.9,84.6,84.6,84.6s84.6-37.9,84.6-84.6S302.7,171.4,256,171.4z
	 M255,323.5c-38.4,0-69.5-31.1-69.5-69.5s31.1-69.5,69.5-69.5s69.5,31.1,69.5,69.5S293.4,323.5,255,323.5z"/>
<g>
	<g>
		<circle class="st0" cx="342.2" cy="159" r="21.6"/>
	</g>
</g>
</svg>
