<?xml version="1.0" encoding="UTF-8"?>
<svg width="98px" height="17px" viewBox="0 0 98 17" version="1.1" xmlns="http://www.w3.org/2000/svg" xmlns:xlink="http://www.w3.org/1999/xlink">
    <title>Logo Copy</title>
    <g id="Page-1" stroke="none" stroke-width="1" fill="none" fill-rule="evenodd">
        <g id="desktop-front" transform="translate(-591.000000, -700.000000)" fill="#FFFFFF">
            <g id="Logo-Copy" transform="translate(591.577855, 700.617693)">
                <path d="M16.9344543,8.73797862 L21.2217833,2.64865389 C21.2764675,2.55823116 21.312206,2.46823902 21.312206,2.39633142 C21.312206,2.28825473 21.2217833,2.19740142 21.024145,2.19740142 L18.2675436,2.19740142 C18.0694748,2.19740142 17.9613981,2.27017019 17.871406,2.41441597 L14.0499693,8.05851642 L14.0499693,0.850102802 C14.0499693,0.413920794 13.7386568,0.122415148 13.3020442,0.122415148 L11.3484827,0.122415148 C10.9118701,0.122415148 10.6212257,0.330387418 10.4339214,0.68389722 L7.25362498,6.60744696 C7.17052219,6.77365254 7.10851804,6.87785397 7.02498466,6.87785397 C6.94188187,6.87785397 6.87944713,6.77365254 6.79677492,6.60744696 L3.61647847,0.68389722 C3.42917425,0.330387418 3.13852977,0.122415148 2.70191718,0.122415148 L0.748355706,0.122415148 C0.311743113,0.122415148 0,0.392822158 0,0.82943475 L0,15.2751111 C0,15.5037515 0.186873634,15.5657556 0.353509801,15.5657556 L3.09676308,15.5657556 C3.28363672,15.5657556 3.42917425,15.3784514 3.42917425,15.1498111 L3.42917425,6.48300806 C3.42917425,6.33747053 3.49160899,6.3163719 3.53337567,6.3163719 C3.59537983,6.3163719 3.63714652,6.35813858 3.69958126,6.46190943 L5.57003994,9.89151426 C5.71557747,10.1408226 5.92354974,10.2450241 6.19395675,10.2450241 L7.85644316,10.2450241 C8.12641958,10.2450241 8.33439185,10.1408226 8.47992938,9.89151426 L10.3508186,6.46190943 C10.4132534,6.35813858 10.4545895,6.3163719 10.5165936,6.3163719 C10.5583603,6.3163719 10.6212257,6.33747053 10.6212257,6.48300806 L10.6212257,15.1498111 C10.6212257,15.3784514 10.7663326,15.5657556 10.9532062,15.5657556 L11.0780757,15.5657556 C11.1125225,15.5769508 11.1486916,15.5847013 11.1870136,15.5847013 L13.5466161,15.5847013 C13.5849382,15.5847013 13.6211072,15.5769508 13.655554,15.5657556 L13.6968901,15.5657556 C13.8630957,15.5657556 14.0499693,15.5037515 14.0499693,15.2751111 L14.0499693,9.61895433 L17.5648299,15.3323789 C17.654822,15.4761941 17.7452447,15.5847013 17.9613981,15.5847013 L21.0598835,15.5847013 C21.2217833,15.5847013 21.312206,15.5119326 21.312206,15.4042865 C21.312206,15.3504634 21.2941214,15.2781252 21.2402984,15.2062176 L16.9344543,8.73797862 Z" id="Fill-1"></path>
                <path d="M31.2953486,15.9999569 C29.6750595,15.9999569 28.4642561,15.8152362 27.4183666,15.5487045 C27.2129778,15.4875615 27.0080196,15.3639838 27.0080196,15.1383575 L27.0080196,13.1283895 C27.0080196,12.8411897 27.1720723,12.7387106 27.3770305,12.7387106 L27.438604,12.7387106 C28.279966,12.8196605 30.5362283,12.9845743 31.3362541,12.9845743 C32.7520157,12.9845743 33.161932,12.5333219 33.161932,11.5481447 C33.161932,10.9539382 32.8747322,10.6254023 31.8081746,9.98985974 L28.9775127,8.30756644 C27.0695932,7.17943529 26.5567672,5.88682089 26.5567672,4.38924831 C26.5567672,2.13255541 27.8282829,0.388688548 31.8081746,0.388688548 C33.3053166,0.388688548 35.3777194,0.63498283 36.1566466,0.840371594 C36.3215604,0.881707698 36.464945,0.983756203 36.464945,1.20895185 L36.464945,3.2817852 C36.464945,3.46650592 36.3822728,3.62969741 36.1161717,3.62969741 L36.0752662,3.62969741 C35.500436,3.58922247 33.1210265,3.40407118 31.725933,3.40407118 C30.5568963,3.40407118 30.1263119,3.75327513 30.1263119,4.4917274 C30.1263119,5.066127 30.3928437,5.33265875 31.5007374,5.92772641 L34.1260105,7.34305736 C36.2599869,8.49185657 36.89596,9.84604454 36.89596,11.5072392 C36.89596,13.6816905 35.4595304,15.9999569 31.2953486,15.9999569" id="Fill-3"></path>
                <path d="M45.6978374,8.84062994 C45.6978374,7.32238931 45.0002906,6.56413017 43.8514914,6.56413017 C42.7229297,6.56413017 41.9646705,7.34262678 41.9646705,8.84062994 L41.9646705,8.92287157 L45.6978374,8.92287157 L45.6978374,8.84062994 Z M48.5082618,10.9741757 L41.9646705,10.9741757 L41.9646705,11.0150812 C41.9646705,12.1845485 42.4563979,13.2511061 44.0766871,13.2511061 C45.3688709,13.2511061 47.19541,13.148627 48.0152427,13.0663854 L48.0776774,13.0663854 C48.3033037,13.0663854 48.4673563,13.169295 48.4673563,13.3949213 L48.4673563,14.9536368 C48.4673563,15.2821727 48.3851147,15.4255573 48.0367719,15.5073684 C46.72392,15.8359043 45.6160264,15.9999569 43.8308234,15.9999569 C41.3489348,15.9999569 38.6823256,14.6871051 38.6823256,10.7278814 L38.6823256,9.29188241 C38.6823256,5.98929998 40.6109132,3.89709033 43.8725901,3.89709033 C47.2363155,3.89709033 48.9392768,6.19425816 48.9392768,9.29188241 L48.9392768,10.4815871 C48.9392768,10.789455 48.7747936,10.9741757 48.5082618,10.9741757 L48.5082618,10.9741757 Z" id="Fill-5"></path>
                <path d="M57.2277684,6.64568285 L57.0637157,6.64568285 C56.0587317,6.64568285 55.1760337,6.95355071 54.4177745,7.36389765 L54.4177745,15.3848241 C54.4177745,15.6100197 54.2330538,15.8154085 54.006997,15.8154085 L51.5251085,15.8154085 C51.2990516,15.8154085 51.0940935,15.6100197 51.0940935,15.3848241 L51.0940935,4.47080099 C51.0940935,4.24560535 51.2788142,4.06045405 51.5044404,4.06045405 L53.9454234,4.06045405 C54.1710497,4.06045405 54.3557704,4.24560535 54.3557704,4.47080099 L54.3557704,4.88114794 C55.1153213,4.24560535 56.1405428,3.89683198 57.1257199,3.89683198 C57.3509155,3.89683198 57.5360668,4.08155269 57.5360668,4.30717892 L57.5360668,6.25557338 C57.5360668,6.44029409 57.4124891,6.64568285 57.2277684,6.64568285" id="Fill-7"></path>
                <path d="M74.2156582,15.8153654 L71.7131016,15.8153654 C71.4874754,15.8153654 71.3027547,15.6306447 71.3027547,15.4050185 L71.3027547,4.47075794 C71.3027547,4.24556229 71.4874754,4.06041099 71.7131016,4.06041099 L74.2156582,4.06041099 C74.4408538,4.06041099 74.6260051,4.24556229 74.6260051,4.47075794 L74.6260051,15.4050185 C74.6260051,15.6306447 74.4408538,15.8153654 74.2156582,15.8153654 M74.2970387,2.72732166 L71.63086,2.72732166 C71.4052338,2.72732166 71.220513,2.54260095 71.220513,2.31697471 L71.220513,0.409916359 C71.220513,0.183428959 71.4052338,0 71.63086,0 L74.2970387,0 C74.5230955,0 74.7082468,0.183428959 74.7082468,0.409916359 L74.7082468,2.31697471 C74.7082468,2.54260095 74.5230955,2.72732166 74.2970387,2.72732166" id="Fill-12"></path>
                <path d="M69.5372725,4.53310656 L66.9524742,13.8462168 C66.4400788,15.6718947 65.1879393,16 63.9784277,16 C62.7676244,16 61.5365835,15.6718947 61.0237575,13.8462168 L58.4591967,4.53310656 C58.4389593,4.49133987 58.4389593,4.45086494 58.4389593,4.40995942 C58.4389593,4.20457065 58.5827745,4.06032488 58.7674952,4.06032488 L61.47501,4.06032488 C61.6803987,4.06032488 61.844882,4.24547617 61.906025,4.49133987 L63.6701293,12.5333649 C63.7317029,12.8412328 63.8346125,12.9639493 63.9784277,12.9639493 C64.1213817,12.9639493 64.2449595,12.8412328 64.3061025,12.5333649 L66.0702068,4.49133987 C66.1317804,4.24547617 66.2962636,4.06032488 66.5012218,4.06032488 L69.2091671,4.06032488 C69.3934573,4.06032488 69.5579405,4.20457065 69.5579405,4.40995942 C69.5579405,4.45086494 69.5579405,4.49133987 69.5372725,4.53310656" id="Fill-9"></path>
                <path d="M84.3713791,15.6925627 C83.7965489,15.8359473 82.8733759,16 81.6423351,16 C78.7500996,16 76.8628481,14.1540846 76.8628481,10.8097355 L76.8628481,9.0865367 C76.8628481,5.74304875 78.7500996,3.8967028 81.6423351,3.8967028 C82.8733759,3.8967028 83.7965489,4.06032488 84.3713791,4.20457065 C84.6788163,4.28638169 84.8019635,4.36862331 84.8019635,4.67606058 L84.8019635,6.50173848 C84.8019635,6.70712725 84.6172428,6.85094244 84.411854,6.85094244 L84.3713791,6.85094244 C83.6118282,6.7691314 83.0374285,6.70712725 81.8679613,6.70712725 C80.9452189,6.70712725 80.1860986,7.26128939 80.1860986,9.0865367 L80.1860986,10.8097355 C80.1860986,12.635844 80.9452189,13.1900061 81.8679613,13.1900061 C83.0374285,13.1900061 83.6118282,13.1284326 84.3713791,13.0461909 L84.411854,13.0461909 C84.6172428,13.0461909 84.8019635,13.1900061 84.8019635,13.3949643 L84.8019635,15.2202116 C84.8019635,15.5285101 84.6788163,15.6103211 84.3713791,15.6925627" id="Fill-14"></path>
                <path d="M93.6037116,8.84062994 C93.6037116,7.32238931 92.9061649,6.56413017 91.7573657,6.56413017 C90.6292345,6.56413017 89.8696836,7.34262678 89.8696836,8.84062994 L89.8696836,8.92287157 L93.6037116,8.92287157 L93.6037116,8.84062994 Z M96.4137055,10.9741757 L89.8696836,10.9741757 L89.8696836,11.0150812 C89.8696836,12.1845485 90.3627028,13.2511061 91.9825613,13.2511061 C93.2751757,13.2511061 95.1008536,13.148627 95.9215475,13.0663854 L95.9826905,13.0663854 C96.2083167,13.0663854 96.3728,13.169295 96.3728,13.3949213 L96.3728,14.9536368 C96.3728,15.2821727 96.2905584,15.4255573 95.941785,15.5073684 C94.6289331,15.8359043 93.52147,15.9999569 91.7366976,15.9999569 C89.2548091,15.9999569 86.5873387,14.6871051 86.5873387,10.7278814 L86.5873387,9.29188241 C86.5873387,5.98929998 88.5159262,3.89709033 91.7776032,3.89709033 C95.1426203,3.89709033 96.8442899,6.19425816 96.8442899,9.29188241 L96.8442899,10.4815871 C96.8442899,10.789455 96.6810984,10.9741757 96.4137055,10.9741757 L96.4137055,10.9741757 Z" id="Fill-17"></path>
            </g>
        </g>
    </g>
</svg>