<?xml version="1.0" encoding="UTF-8"?>
<svg width="544px" height="234px" viewBox="0 0 544 234" version="1.1" xmlns="http://www.w3.org/2000/svg" xmlns:xlink="http://www.w3.org/1999/xlink">
    <title>Group 44 Copy</title>
    <g id="skjema" stroke="none" stroke-width="1" fill="none" fill-rule="evenodd">
        <g id="Group-44-Copy" transform="translate(3.000000, 1.000000)" stroke="#966448">
            <g id="Group-7-Copy-2" transform="translate(0.000000, 64.000000)" stroke-width="5">
                <path d="M10.1875191,44.4781581 L163.255232,49.0262527 L163.255232,33.6657069 L173.723928,0 L308.54321,0 L386.178325,49.0262527 L407.386799,49.0262527 L478.772561,60.1402756 L488.622697,76.5698075 L488.622697,105.785492 L498,105.785492 L498,143.798246 L465.23078,143.798246 C465.759801,104.776655 450.737748,85.2658603 420.164621,85.2658603 C389.591494,85.2658603 374.235107,102.855259 374.095459,138.034057 L150.923463,138.034057 C150.701669,100.192929 134.233023,81.2723657 101.517527,81.2723657 C68.8020304,81.2723657 54.4313958,100.192929 58.405623,138.034057 L0,138.034057 L0,105.785492 L10.1875191,105.785492 L10.1875191,44.4781581 Z" id="Path-3" fill="#E6B25F"></path>
                <polygon id="Path-4" fill="#D8D8D8" points="193.223418 10.377193 248.256716 10.377193 248.256716 53.3684211 182.847761 53.3684211"></polygon>
                <polygon id="Path-5" fill="#D8D8D8" points="267.58209 10.377193 303.042756 10.377193 367.18209 53.0865795 367.18209 62.2631579 317.38209 62.2631579 303.042756 53.0865795 267.58209 53.0865795"></polygon>
                <path d="M104.059701,94.4122807 C114.043248,94.4122807 123.081964,98.4471969 129.624589,104.971729 C136.164705,111.493758 140.210448,120.503693 140.210448,130.45614 C140.210448,140.408587 136.164705,149.418522 129.624589,155.940552 C123.081964,162.465084 114.043248,166.5 104.059701,166.5 C94.0761549,166.5 85.0374394,162.465084 78.4948143,155.940552 C71.9546982,149.418522 67.9089552,140.408587 67.9089552,130.45614 C67.9089552,120.503693 71.9546982,111.493758 78.4948143,104.971729 C85.0374394,98.4471969 94.0761549,94.4122807 104.059701,94.4122807 Z M104.059701,102.902632 C96.4326184,102.902632 89.5279011,105.986093 84.5297508,110.970421 C79.5290914,115.957252 76.4367164,122.846659 76.4367164,130.45614 C76.4367164,138.065622 79.5290914,144.955029 84.5297508,149.941859 C89.5279011,154.926187 96.4326184,158.009649 104.059701,158.009649 C111.686785,158.009649 118.591502,154.926187 123.589652,149.941859 C128.590312,144.955029 131.682687,138.065622 131.682687,130.45614 C131.682687,122.846659 128.590312,115.957252 123.589652,110.970421 C118.591502,105.986093 111.686785,102.902632 104.059701,102.902632 Z" id="Combined-Shape" fill="#D8D8D8"></path>
                <path d="M420.698507,94.4122807 C430.682054,94.4122807 439.72077,98.4471969 446.263395,104.971729 C452.803511,111.493758 456.849254,120.503693 456.849254,130.45614 C456.849254,140.408587 452.803511,149.418522 446.263395,155.940552 C439.72077,162.465084 430.682054,166.5 420.698507,166.5 C410.714961,166.5 401.676245,162.465084 395.13362,155.940552 C388.593504,149.418522 384.547761,140.408587 384.547761,130.45614 C384.547761,120.503693 388.593504,111.493758 395.13362,104.971729 C401.676245,98.4471969 410.714961,94.4122807 420.698507,94.4122807 Z M420.698507,102.902632 C413.071424,102.902632 406.166707,105.986093 401.168557,110.970421 C396.167897,115.957252 393.075522,122.846659 393.075522,130.45614 C393.075522,138.065622 396.167897,144.955029 401.168557,149.941859 C406.166707,154.926187 413.071424,158.009649 420.698507,158.009649 C428.325591,158.009649 435.230308,154.926187 440.228458,149.941859 C445.229118,144.955029 448.321493,138.065622 448.321493,130.45614 C448.321493,122.846659 445.229118,115.957252 440.228458,110.970421 C435.230308,105.986093 428.325591,102.902632 420.698507,102.902632 Z" id="Combined-Shape-Copy" fill="#D8D8D8"></path>
            </g>
            <ellipse id="Oval" stroke-width="4" fill="#FFFFFF" cx="491.5" cy="146.5" rx="8.5" ry="19.5"></ellipse>
            <path d="M285,39 L271,39 L271,39 L271,64 L300,64 L300,54 C300,45.7157288 293.284271,39 285,39 Z" id="Path-37" stroke-width="3" fill="#FDFDFD"></path>
            <g id="Group-43" transform="translate(283.000000, 0.000000)" stroke-width="4">
                <line x1="8.62631845" y1="0" x2="2.69797257e-16" y2="28.687982" id="Path-38"></line>
                <line x1="38.8349587" y1="13.9109208" x2="16.3513514" y2="39.087982" id="Path-38-Copy"></line>
                <line x1="53.6998236" y1="51.0537779" x2="25.2702703" y2="50.9736963" id="Path-38-Copy-2"></line>
            </g>
            <g id="Group-43-Copy" transform="translate(510.000000, 103.000000)" stroke-width="4">
                <line x1="26.0183529" y1="1.27025169" x2="1.47619048" y2="19.587152" id="Path-38"></line>
                <line x1="30.4469244" y1="41.0061007" x2="0.923114848" y2="41.0061007" id="Path-38-Copy"></line>
                <line x1="28.9707339" y1="77.7985536" x2="1.47619048" y2="65.2097935" id="Path-38-Copy-2"></line>
            </g>
        </g>
    </g>
</svg>